<svg xmlns="http://www.w3.org/2000/svg" width="120" height="120" viewBox="0 0 120 120">
  <g fill="none" stroke="#e0bd6a" stroke-width="1.1">
    <path d="M60 0 L75 15 L60 30 L45 15 Z"/>
    <path d="M0 60 L15 45 L30 60 L15 75 Z"/>
    <path d="M120 60 L105 45 L90 60 L105 75 Z"/>
    <path d="M60 120 L75 105 L60 90 L45 105 Z"/>
    <path d="M60 30 L90 60 L60 90 L30 60 Z"/>
    <circle cx="60" cy="60" r="10"/>
    <path d="M0 0 L30 30 M120 0 L90 30 M0 120 L30 90 M120 120 L90 90"/>
    <path d="M60 30 L60 0 M60 90 L60 120 M30 60 L0 60 M90 60 L120 60"/>
  </g>
</svg>
